Coordinates
nRows=109
nColumns=2
inDegrees=yes
endheader
time	ankle_angle_r	
3.86492	 18.460112	
3.93649	 18.531353	
4.00806	 18.423416	
4.07964	 18.367829	
4.15121	 18.454116	
4.22278	 18.497734	
4.29435	 18.466089	
4.36593	 18.460446	
4.4375	 18.523212	
4.50907	 18.530909	
4.58065	 18.431458	
4.65222	 18.416320	
4.72379	 18.493407	
4.79536	 18.492206	
4.86694	 18.428262	
4.93851	 18.412596	
5.01008	 18.466835	
5.08165	 18.522773	
5.15323	 18.508984	
5.2248	 18.465973	
5.29637	 18.508257	
5.36794	 18.552420	
5.43952	 18.509125	
5.51109	 18.506051	
5.58266	 18.510600	
5.65423	 18.459670	
5.72581	 18.445789	
5.79738	 18.481737	
5.86895	 18.534659	
5.94052	 18.550436	
6.0121	 18.485845	
6.08367	 18.445373	
6.15524	 18.513748	
6.22681	 18.549876	
6.29839	 18.493074	
6.36996	 18.482065	
6.44153	 18.525049	
6.5131	 18.520607	
6.58468	 18.522905	
6.65625	 18.556284	
6.72782	 18.509050	
6.7994	 18.498023	
6.87097	 18.514992	
6.94254	 18.436075	
7.01411	 18.455262	
7.08569	 18.534293	
7.15726	 18.531403	
7.22883	 18.508614	
7.3004	 18.460181	
7.37198	 18.441970	
7.44355	 18.477470	
7.51512	 18.488449	
7.58669	 18.500813	
7.65827	 18.528070	
7.72984	 18.533567	
7.80141	 18.544134	
7.87298	 18.501940	
7.94456	 18.404322	
8.01613	 18.413148	
8.0877	 18.447429	
8.15927	 18.418268	
8.23085	 18.453572	
8.30242	 18.507163	
8.37399	 18.489786	
8.44556	 18.457574	
8.51714	 18.478709	
8.58871	 18.503534	
8.66028	 18.478552	
8.73185	 18.476990	
8.80343	 18.450236	
8.875	 18.386110	
8.94657	 18.424905	
9.01815	 18.499802	
9.08972	 18.489989	
9.16129	 18.473753	
9.23286	 18.513934	
9.30444	 18.524161	
9.37601	 18.473810	
9.44758	 18.467623	
9.51915	 18.509885	
9.59073	 18.490232	
9.6623	 18.472090	
9.73387	 18.529411	
9.80544	 18.524354	
9.87702	 18.475587	
9.94859	 18.501877	
10.0202	 18.529201	
10.0917	 18.504913	
10.1633	 18.478147	
10.2349	 18.469610	
10.3065	 18.479753	
10.378	 18.502109	
10.4496	 18.469983	
10.5212	 18.413208	
10.5927	 18.467514	
10.6643	 18.550496	
10.7359	 18.510440	
10.8075	 18.444974	
10.879	 18.494877	
10.9506	 18.541674	
11.0222	 18.480727	
11.0937	 18.467297	
11.1653	 18.479259	
11.2369	 18.445761	
11.3085	 18.458574	
11.38	 18.444369	
11.4516	 18.426010	
11.5232	 18.472138	
11.5948	 18.465159	
